<svg xmlns="http://www.w3.org/2000/svg"><symbol id="basket" viewBox="0 0 48 48"><path d="M15.733 20.125a2 2 0 0 0 2-2v-7.8A6.332 6.332 0 0 1 24.058 4a6.333 6.333 0 0 1 6.325 6.325v7.8a2 2 0 0 0 4 0v-7.8C34.383 4.632 29.751 0 24.058 0c-5.692 0-10.324 4.632-10.324 10.325v7.8a2 2 0 0 0 1.999 2z"/><path d="M47 15.631H36.383v2.494c0 2.206-1.794 4-4 4-2.205 0-4-1.794-4-4v-2.494h-8.649v2.494c0 2.206-1.794 4-4 4s-4-1.794-4-4v-2.494H1c-.552 0-.893.435-.762.971L7.235 45.1C7.658 46.702 9.343 48 11 48h26c1.658 0 3.342-1.299 3.767-2.9l6.996-28.498c.13-.537-.21-.971-.763-.971z"/></symbol><symbol id="compare" viewBox="0 0 121.805 121.805"><path d="M121.805 109.623V21.926a4.872 4.872 0 0 0-4.871-4.873H92.572a4.871 4.871 0 0 0-4.871 4.873v87.697a4.87 4.87 0 0 0 4.871 4.873h24.361a4.871 4.871 0 0 0 4.872-4.873zM46.287 114.496h26.797a4.871 4.871 0 0 0 4.872-4.873V12.181a4.871 4.871 0 0 0-4.872-4.872H46.287a4.871 4.871 0 0 0-4.873 4.872v97.442a4.87 4.87 0 0 0 4.873 4.873zM4.872 46.286A4.87 4.87 0 0 0 0 51.158v58.465a4.87 4.87 0 0 0 4.872 4.873h24.361a4.87 4.87 0 0 0 4.872-4.873V51.158a4.87 4.87 0 0 0-4.872-4.872H4.872z"/></symbol><symbol id="facebook" viewBox="0 0 288.861 288.861"><path d="M167.172 288.861h-62.16V159.347H70.769v-59.48h34.242v-33.4C105.011 35.804 124.195 0 178.284 0c19.068 0 33.066 1.787 33.651 1.864l5.739.746-1.382 55.663-6.324-.058c-.013 0-14.223-.135-29.724-.135-11.536 0-13.066 2.847-13.066 14.171V99.88h50.913l-2.821 59.48h-48.086v129.501h-.012zm-49.314-12.854h36.453V146.5h48.677l1.607-33.779h-50.284V72.238c0-13.368 3.078-27.025 25.919-27.025 9.178 0 17.899.045 23.509.09l.778-31.292a300.444 300.444 0 0 0-26.247-1.157c-44.544 0-60.419 27.693-60.419 53.613v46.254H83.61V146.5h34.242v129.507h.006z"/></symbol><symbol id="htmlacademy" viewBox="0 0 26.943 34.09"><path d="M13.62.017L13.472 0 0 1.412v24.661l13.473 8.017 13.43-7.99.042-.025V1.412L13.62.017zm11.399 12.11L13.495 5.334l-.001-.104-.087.05-.088-.056v.109L1.925 12.118V3.147l11.548-1.212L25.02 3.147v8.98zm-11.614-5.34L24.923 13.5l-4.479 2.64-7.093-4.221-.014 1.415 5.904 3.513-.86.507-5.03-2.992-.014 1.415 3.827 2.275-.782.523-3.031-1.787-.014 1.413 1.853 1.091-1.8 1.081-11.356-6.751 11.371-6.835zm-11.48 8.34l11.411 6.791.016 1.044-7.942-4.728-.015 1.416 7.979 4.795.018 1.076-7.973-4.74-.013 1.414 8.021 4.822.046.025 8.143-4.872-.011-5.177 3.415-2.036v10.021L13.472 31.85 1.925 24.979v-9.852z"/></symbol><symbol id="instagram" viewBox="0 0 612 612"><path d="M513.381 84.865h-56.158c-18.346 0-33.281 14.936-33.281 33.281v56.144c0 18.345 14.936 33.281 33.281 33.281h56.158c18.345 0 33.281-14.936 33.281-33.281v-56.144c0-18.346-14.936-33.281-33.281-33.281zm4.138 89.425a4.135 4.135 0 0 1-4.138 4.138h-56.158a4.136 4.136 0 0 1-4.139-4.138v-56.144a4.144 4.144 0 0 1 4.139-4.138h56.158a4.146 4.146 0 0 1 4.138 4.138v56.144zM480.857 7.286H131.143C58.839 7.286 0 66.125 0 138.429v335.142c0 72.305 58.839 131.143 131.143 131.143h349.714C553.16 604.714 612 545.876 612 473.571V138.429C612 66.125 553.16 7.286 480.857 7.286zm102 466.285c0 56.246-45.755 102-102 102H131.143c-56.246 0-102-45.754-102-102V255h146.895c-27.802 30.979-44.895 71.764-44.895 116.571 0 96.42 78.438 174.857 174.857 174.857s174.857-78.438 174.857-174.857c0-44.807-17.093-85.592-44.895-116.571h146.895v218.571zM306 225.857c80.347 0 145.714 65.368 145.714 145.714 0 80.348-65.367 145.715-145.714 145.715s-145.714-65.367-145.714-145.715c0-80.346 65.367-145.714 145.714-145.714zm276.857 0H402.448c-27.671-18.375-60.807-29.143-96.448-29.143-35.627 0-68.777 10.768-96.448 29.143H29.143v-87.428c0-56.246 45.754-102 102-102h349.714c56.245 0 102 45.754 102 102v87.428zM306 473.571c56.246 0 102-45.754 102-102 0-56.244-45.754-102-102-102s-102 45.755-102 102c0 56.246 45.754 102 102 102zm0-174.856c40.174 0 72.857 32.685 72.857 72.856 0 40.174-32.684 72.857-72.857 72.857s-72.857-32.684-72.857-72.857c0-40.172 32.684-72.856 72.857-72.856z"/></symbol><symbol id="search" viewBox="0 0 250.313 250.313"><path d="M244.186 214.604l-54.379-54.378c-.289-.289-.628-.491-.93-.76 10.7-16.231 16.945-35.66 16.945-56.554C205.822 46.075 159.747 0 102.911 0S0 46.075 0 102.911c0 56.835 46.074 102.911 102.91 102.911 20.895 0 40.323-6.245 56.554-16.945.269.301.47.64.759.929l54.38 54.38c8.169 8.168 21.413 8.168 29.583 0 8.168-8.169 8.168-21.413 0-29.582zm-141.275-44.458c-37.134 0-67.236-30.102-67.236-67.235 0-37.134 30.103-67.236 67.236-67.236 37.132 0 67.235 30.103 67.235 67.236s-30.103 67.235-67.235 67.235z" fill-rule="evenodd" clip-rule="evenodd"/></symbol><symbol id="twitter" viewBox="0 0 611.981 611.981"><path d="M605.95 114.16c-4.909-3.356-11.387-3.245-16.144.319-3.287 2.455-8.183 4.632-13.896 6.532 18.82-23.342 19.098-38.944 18.82-42.786a13.893 13.893 0 0 0-7.947-11.539c-4.549-2.136-9.875-1.664-13.952 1.276-25.658 18.363-51.329 22.357-66.308 22.884-24.382-22.648-55.906-35.061-89.414-35.061-72.494 0-131.479 58.957-131.479 131.451 0 5.243.305 10.485.929 15.672C165.581 199.899 67.457 85.867 66.472 84.703a13.773 13.773 0 0 0-11.789-4.854 13.908 13.908 0 0 0-10.763 6.824c-30.789 52.633-18.224 102.506 2.885 137.387-3.925-2.108-8.668-2.247-12.746-.208a13.873 13.873 0 0 0-7.697 12.191c-.901 55.296 24.354 88.443 49.832 107.748a13.765 13.765 0 0 0-4.979 3.482 13.875 13.875 0 0 0-3.01 13.453c17.711 57.127 59.318 78.539 88.513 86.557-33.48 23.605-74.893 29.139-106.362 29.139-20.096 0-33.938-2.385-34.077-2.414-6.269-1.109-12.565 2.262-15.131 8.143a13.856 13.856 0 0 0 4.383 16.6c63.146 47.475 139.397 57.447 192.253 57.447 41.773 0 70.801-6.104 72.271-6.422 271.306-63.354 281.611-306.618 281.181-350.943 50.857-46.725 58.957-64.963 60.233-69.512a13.857 13.857 0 0 0-5.519-15.161zm-78.054 68.444a13.877 13.877 0 0 0-4.521 11.234c.181 2.635 15.006 264.801-259.365 328.877-.264.055-27.6 5.756-66.239 5.756-36.004 0-83.658-4.924-129.135-24.881 41.635-2.664 92.687-15.438 129.412-56.059 3.675-4.078 4.577-9.918 2.344-14.938-2.233-5.008-7.239-8.238-12.718-8.238-2.58 0-57.168-.652-84.49-51.398 12.648.402 24.118-1.471 32.62-5.34 5.45-2.482 8.668-8.17 8.03-14.119-.638-5.949-5.048-10.818-10.901-12.08-2.954-.637-65.795-14.951-77.126-81.231 9.847 3.759 21.83 6.366 33.425 4.66a13.89 13.89 0 0 0 11.303-9.902 13.889 13.889 0 0 0-4.341-14.382c-2.773-2.358-62.702-54.436-36.669-122.588C94.433 153.41 189.422 236.819 303.967 230.37a13.874 13.874 0 0 0 10.401-5.658 13.914 13.914 0 0 0 2.247-11.636 104.148 104.148 0 0 1-3.231-25.824c0-57.182 46.53-103.713 103.74-103.713 28.029 0 54.283 10.998 73.95 30.983a13.894 13.894 0 0 0 9.652 4.133l2.136.014c10.194 0 26.171-1.234 44.492-7.143-5.866 6.199-13.494 13.189-23.383 20.831a13.872 13.872 0 0 0-4.452 15.963c2.205 5.728 7.975 9.334 14.021 8.834 2.247-.18 12.121-1.04 24.34-3.231-7.697 7.878-17.502 17.35-29.984 28.681z"/></symbol><symbol id="user" viewBox="0 0 409.165 409.164"><path d="M204.583 216.671c50.664 0 91.74-48.075 91.74-107.378 0-82.237-41.074-107.377-91.74-107.377-50.668 0-91.74 25.14-91.74 107.377.001 59.303 41.073 107.378 91.74 107.378zM407.164 374.717L360.88 270.454a23.23 23.23 0 0 0-10.465-11.138l-71.83-37.392a4.628 4.628 0 0 0-4.926.415c-20.316 15.366-44.203 23.488-69.076 23.488-24.877 0-48.762-8.122-69.078-23.488a4.635 4.635 0 0 0-4.93-.415L58.75 259.316a23.222 23.222 0 0 0-10.465 11.138L2.001 374.717a23.059 23.059 0 0 0 1.75 22.005 23.056 23.056 0 0 0 19.4 10.526h362.861a23.063 23.063 0 0 0 19.402-10.527 23.063 23.063 0 0 0 1.75-22.004z"/></symbol></svg>